Inverse Dynamics Generalized Forces
version=1
nRows=9
nColumns=34
inDegrees=no
endheader 
time	pelvis_tilt_moment	pelvis_list_moment	pelvis_rotation_moment	pelvis_tx_force	pelvis_ty_force	pelvis_tz_force	hip_flexion_l_moment	hip_adduction_l_moment	hip_rotation_l_moment	hip_flexion_r_moment	hip_adduction_r_moment	hip_rotation_r_moment	knee_angle_l_moment	knee_angle_r_moment	ankle_angle_l_moment	ankle_angle_r_moment	subtalar_angle_l_moment	subtalar_angle_r_moment	mtp_angle_l_moment	mtp_angle_r_moment	lumbar_extension_moment	lumbar_bending_moment	lumbar_rotation_moment	arm_flex_l_moment	arm_add_l_moment	arm_rot_l_moment	arm_flex_r_moment	arm_add_r_moment	arm_rot_r_moment	elbow_flex_l_moment	elbow_flex_r_moment	pro_sup_l_moment	pro_sup_r_moment	
         11.60000000	         -0.00000002	          0.00000001	          0.00000000	          0.00000001	         -0.00000006	         -0.00000000	         98.43180552	        109.12321346	        -34.94773809	         49.91216981	          9.56711973	         -1.84810484	        -14.04045635	         10.81838181	          5.61680424	          6.27745599	         -0.30473286	         -1.29769258	         -0.39311051	         -0.40440267	        -31.93257867	         32.29854472	          2.81567657	        139.28031484	        -64.80128798	        -47.31124458	        133.04845126	         61.57375465	        -11.94993692	        -73.21022363	        -62.80395515	          0.55754548	         29.95177223	
         11.61000000	         -0.00000000	         -0.00000001	         -0.00000000	         -0.00000000	         -0.00000001	          0.00000000	         33.92583976	         81.24693296	        -36.34048644	         30.95274819	         22.24188894	         -5.71319037	         21.20121779	         23.58136440	          2.09565818	          2.80101867	          0.85563305	          0.11835316	         -0.22323797	         -0.25944758	        -98.55303408	         98.82750219	         76.67128501	        141.85317263	        -11.57315790	        -72.62848847	        143.16034539	          8.22457276	        -11.52670264	        -16.93541688	        -80.77932579	         -1.14496479	          3.63456127	
         11.62000000	          0.00000001	         -0.00000001	         -0.00000000	          0.00000001	         -0.00000001	          0.00000001	         61.90454875	        108.13187528	        -29.82140404	         41.94810674	         19.39772620	         -3.50852284	         23.21647807	         15.55860998	          2.70064775	          3.33839114	          0.08057741	          0.69054029	         -0.23372547	         -0.24061930	       -148.61585520	        117.69132411	        132.17090620	        143.49173801	         28.63463513	        -91.66144236	        144.65632547	        -31.25105161	         28.14923103	         25.30959291	        -97.20598698	         -3.68229159	          5.75068077	
         11.63000000	          0.00000000	         -0.00000000	          0.00000000	          0.00000001	         -0.00000002	         -0.00000000	         54.20933033	        117.47766455	        -26.33123289	         29.44327813	         14.60349581	         -3.41410218	         33.72064727	         14.69480994	          1.31534698	          2.69777537	          0.57426453	          0.74548974	         -0.17361721	         -0.09985142	       -103.48616537	        100.06178481	        144.01756082	        144.85848729	         58.67988387	       -105.44911711	        145.36723657	        -15.57758693	        -12.82028356	         57.06723918	        -36.43129193	         -6.38370540	          2.22714328	
         11.64000000	         -0.00000000	         -0.00000000	          0.00000000	         -0.00000001	          0.00000001	         -0.00000001	          9.39978641	        115.43715766	        -29.65810023	         24.08054038	         10.06617777	         -1.84523552	         43.42403364	          7.57014161	         -0.82551740	          4.32188401	          2.03926895	         -0.48024011	         -0.13832983	         -0.19686832	        -22.84060317	        106.19550036	         87.18543482	        146.15180451	         81.00260715	        -94.32830729	        145.96641600	         25.46479911	        -47.69582820	         61.17439305	         10.75582576	         -8.00352737	         -0.82428436	
         11.65000000	         -0.00000001	         -0.00000001	          0.00000000	         -0.00000001	          0.00000000	         -0.00000001	        -13.10610811	        100.92429704	        -29.67606395	         15.81966797	          9.31344485	         -1.42853147	         44.45896770	          7.36741418	         -1.44071434	          1.92903385	          2.39925616	         -0.66812896	         -0.14588651	          0.07989343	          7.35307883	         79.15434258	         23.90568651	        146.96761231	         97.37212010	        -40.33176926	        146.57831846	         56.28154381	        -73.74002804	          9.41073731	         45.80380169	         -6.00306047	         -3.76656960	
         11.66000000	          0.00000000	          0.00000000	         -0.00000000	         -0.00000001	          0.00000000	         -0.00000000	        -14.98525864	         74.62693415	        -25.33886970	        -15.17347981	         15.04813605	         -5.42720753	         32.97554228	          5.37382327	         -0.69843897	          2.53686684	          1.80852553	         -1.13844750	         -0.16288775	         -0.03644050	         80.08081731	         18.78264752	         -3.15221494	        146.12424350	        109.46130162	          9.44777475	        147.23977186	         34.54407790	        -92.80759519	          8.74406171	         50.84172793	         -4.96867068	         -6.77650634	
         11.67000000	          0.00000000	          0.00000000	         -0.00000000	          0.00000000	          0.00000001	          0.00000001	         -6.09313860	         48.45604727	        -19.37730228	        -29.37929037	         19.08293933	         -7.14270492	         20.50558697	        -10.78038408	          0.05418161	          1.44336470	          0.73123968	         -0.19262715	         -0.10397380	         -0.05373846	        134.73454199	         -5.73240768	         12.09548473	         70.62480576	        119.39034777	         49.08048578	        147.90953470	        -10.97300405	       -105.90297312	        -30.44993358	         30.69292385	          3.69727005	         -8.56007505	
         11.68000000	          0.00000000	         -0.00000000	         -0.00000000	          0.00000001	         -0.00000001	         -0.00000000	          5.68928607	         20.51740257	        -16.24243566	        -46.02628461	         20.32242651	         -8.42459486	          9.40003572	         -6.97415631	          0.81817779	         -0.14893647	          0.36695293	          0.70738589	         -0.10547829	         -0.01463094	        100.33793724	        -37.58526743	         -6.32815023	         15.72557386	        127.83071228	         79.78592374	        148.56828097	         29.65974424	        -39.81553671	        -62.40120547	        -15.44201865	         16.53224239	          0.10674755	
